<svg xmlns="http://www.w3.org/2000/svg" viewBox="0 0 800 800" width="100%" height="100%">
  <defs>
    <linearGradient id="bg" x1="0%" y1="0%" x2="100%" y2="100%">
      <stop offset="0%" stop-color="#1A0B2E" />
      <stop offset="50%" stop-color="#281446" />
      <stop offset="100%" stop-color="#11052C" />
    </linearGradient>
    <linearGradient id="purple" x1="0%" y1="0%" x2="100%" y2="100%">
      <stop offset="0%" stop-color="#A78BFA" />
      <stop offset="100%" stop-color="#8B5CF6" />
    </linearGradient>
  </defs>
  <rect width="800" height="800" fill="url(#bg)" rx="16" />
  <rect x="40" y="40" width="720" height="720" fill="none" stroke="rgba(255,255,255,0.08)" stroke-width="2" rx="12" />
  
  <g transform="translate(340, 240)" fill="none" stroke="url(#purple)" stroke-width="5" stroke-linecap="round" stroke-linejoin="round">
    <rect x="20" y="0" width="80" height="24" rx="4" />
    <path d="M10 24 L110 24 L110 200 C110 216 96 230 80 230 L40 230 C24 230 10 216 10 200 Z" />
    <path d="M50 115 A20 20 0 1 0 70 145 A15 15 0 0 1 50 115 Z" fill="url(#purple)" />
  </g>

  <text x="400" y="550" text-anchor="middle" fill="#FFFFFF" font-family="system-ui, -apple-system, sans-serif" font-size="28" font-weight="600" letter-spacing="0.5">MELATONIN MAX 55 MG</text>
  <text x="400" y="590" text-anchor="middle" fill="#DDD6FE" font-family="system-ui, -apple-system, sans-serif" font-size="20">Fórmula de Alta Concentración</text>
  <rect x="230" y="630" width="340" height="38" rx="19" fill="rgba(167,139,250,0.15)" stroke="#A78BFA" stroke-width="1.5" />
  <text x="400" y="655" text-anchor="middle" fill="#C4B5FD" font-family="system-ui, -apple-system, sans-serif" font-size="14" font-weight="600" letter-spacing="1">REVISIÓN TOXICOLÓGICA PENDIENTE</text>
</svg>
